<svg width="133" height="101" fill="none" xmlns="http://www.w3.org/2000/svg"><circle cx="61.5" cy="50.5" r="50.5" fill="#FBD60B"/><path d="M32.4 66.78V72H2.22v-4.08l17.1-16.5c2.08-2 3.48-3.72 4.2-5.16.72-1.48 1.08-2.96 1.08-4.44 0-2.2-.78-3.9-2.34-5.1-1.52-1.24-3.72-1.86-6.6-1.86-4.64 0-8.22 1.52-10.74 4.56L.84 35.88c1.64-2 3.78-3.56 6.42-4.68 2.68-1.12 5.66-1.68 8.94-1.68 4.4 0 7.9 1.06 10.5 3.18 2.6 2.08 3.9 4.92 3.9 8.52 0 2.24-.48 4.36-1.44 6.36s-2.78 4.28-5.46 6.84L10.86 66.78H32.4zm40.36-5.1h-7.98V72h-5.82V61.68H35.62v-4.2L57.1 30h6.48L43 56.52h16.14V47.4h5.64v9.12h7.98v5.16zm20.477-40.2h5.22L78.657 78h-5.22l19.8-56.52zM130.394 30v4.08L113.414 72h-6.36l16.62-36.78h-19.2v7.5h-5.76V30h31.68z" fill="#067C94"/></svg>