<svg width="55" height="54" fill="none" xmlns="http://www.w3.org/2000/svg"><path fill-rule="evenodd" clip-rule="evenodd" d="M22.88 48.034c-5.482-.99-7.985-7.13-10.705-11.991C9.458 31.188 4.02 26.11 5.861 20.86c1.801-5.14 12.194-5.84 17.019-8.365 4.587-2.401 6.57-6.795 11.682-5.965 5.52.897 10.222 4.818 12.862 9.748 2.595 4.846 3.082 10.823.84 15.842-2.024 4.53-7.437 5.7-11.64 8.334-4.608 2.889-8.392 8.545-13.744 7.579z" fill="#067C94"/><path d="M36.645 20.292c.39.395.39 1.022 0 1.417l-11.34 11.479a.982.982 0 01-.7.296.974.974 0 01-.7-.296l-4.2-4.252a.998.998 0 01-.216-1.092.996.996 0 01.216-.325.982.982 0 01.7-.296.974.974 0 01.7.296l3.5 3.543 10.64-10.77a.982.982 0 01.7-.296.974.974 0 01.7.296zm-2.11-2.146l-9.93 10.051-2.79-2.824c-.78-.79-2.05-.79-2.83 0l-1.4 1.417c-.78.79-.78 2.075 0 2.865l5.6 5.669c.78.789 2.05.789 2.83 0l12.75-12.896c.78-.79.78-2.076 0-2.865l-1.4-1.417c-.79-.79-2.05-.79-2.83 0z" fill="#fff"/></svg>