<svg width="101" height="101" fill="none" xmlns="http://www.w3.org/2000/svg"><circle cx="50.5" cy="50.5" r="50.5" fill="#FBD60B"/><path d="M49.775 28.812c5.734 0 10.146 1.85 13.237 5.551 3.131 3.7 4.697 8.947 4.697 15.738 0 4.758-.854 8.825-2.562 12.2-1.667 3.335-4.026 5.876-7.076 7.625-3.01 1.708-6.527 2.562-10.553 2.562-2.074 0-4.026-.203-5.856-.61-1.83-.447-3.416-1.078-4.758-1.891l2.318-4.758c2.074 1.342 4.819 2.013 8.235 2.013 4.433 0 7.89-1.362 10.37-4.087 2.521-2.765 3.782-6.771 3.782-12.017v-1.525c-1.22 1.83-2.908 3.233-5.063 4.209-2.155.935-4.575 1.403-7.259 1.403-2.806 0-5.327-.529-7.564-1.586-2.196-1.057-3.924-2.562-5.185-4.514-1.22-1.993-1.83-4.27-1.83-6.832 0-2.684.65-5.043 1.952-7.076 1.342-2.033 3.152-3.599 5.429-4.697 2.277-1.139 4.84-1.708 7.686-1.708zm.549 21.472c1.911 0 3.62-.366 5.124-1.098 1.505-.732 2.664-1.728 3.477-2.989a7.339 7.339 0 001.281-4.209c0-1.505-.407-2.867-1.22-4.087-.773-1.26-1.932-2.257-3.477-2.989-1.505-.773-3.335-1.159-5.49-1.159-2.806 0-5.083.752-6.832 2.257-1.708 1.505-2.562 3.518-2.562 6.039s.874 4.534 2.623 6.039c1.749 1.464 4.107 2.196 7.076 2.196z" fill="#067C94"/></svg>