<svg width="32" height="33" fill="none" xmlns="http://www.w3.org/2000/svg"><path opacity=".84" d="M26.272 30.975h0l.016-.017c.374-.457.79-.87 1.212-1.284.293-.289.582-.573.85-.867l.004-.005h0c.593-.635.862-1.326.86-1.983-.002-.656-.275-1.331-.865-1.938l-3.701-3.804-.007-.007h0c-.559-.598-1.192-.883-1.836-.883-.64 0-1.284.281-1.863.877 0 0 0 0 0 0l-2.188 2.248-.272.28-.338-.196a9.755 9.755 0 00-.466-.25l-.102-.051h0a9.508 9.508 0 01-.713-.396l-.007-.004h0c-2.059-1.342-3.916-3.09-5.683-5.32l-.004-.005h0c-.894-1.157-1.498-2.142-1.929-3.168l-.135-.321.255-.238a37.505 37.505 0 001.595-1.607l.005-.005h0l.278-.289.002-.002.291-.303c.622-.639.9-1.318.9-1.962 0-.644-.278-1.322-.9-1.957h0l-1.838-1.89h0a59.803 59.803 0 01-.32-.332l-.001-.001-.308-.32-.003-.003h0l-.15-.157c-.363-.38-.725-.758-1.086-1.1l-.008-.008L7.81 3.7c-.556-.571-1.184-.843-1.83-.843-.638 0-1.281.272-1.866.847L1.813 6.062s0 0 0 0A4.498 4.498 0 00.525 8.898c-.11 1.43.144 2.971.829 4.875l24.918 17.203zm0 0l-.008.01c-.904 1.007-2.041 1.515-3.427 1.515-.127 0-.25-.006-.393-.013m3.828-1.512l-3.828 1.512m0 0c-2.19-.147-4.173-.99-5.697-1.737-3.972-1.976-7.448-4.779-10.346-8.328-2.387-2.955-3.985-5.702-5.047-8.65l21.09 18.715zM6.852 22.005v-.002c-2.327-2.877-3.897-5.568-4.939-8.459-.645-1.782-.899-3.21-.795-4.591v-.005h0c.082-.947.441-1.75 1.11-2.43l2.29-2.354.007-.007h0c.416-.411.918-.672 1.462-.672.544 0 1.026.267 1.435.678.411.396.808.81 1.215 1.235l.016.017.003.002h0c.208.221.417.443.632.657l.005.005h0l1.838 1.889c.43.441.707.943.707 1.503 0 .56-.277 1.061-.707 1.503h0c-.196.2-.387.398-.572.594l-.004.004h0l-.14.147c-.515.535-1.016 1.056-1.567 1.56l-.006.007-.016.017c-.193.198-.252.364-.267.493-.017.14.01.286.064.447h0l.002.004v.002l.012.032c.452 1.115 1.093 2.186 2.095 3.49 1.821 2.305 3.73 4.087 5.833 5.461.242.158.501.295.773.435L6.852 22.005zm0 0c2.836 3.483 6.25 6.232 10.16 8.167h.002c1.42.693 3.363 1.538 5.485 1.679h.001c.103.006.228.014.35.014 1.22 0 2.187-.415 2.987-1.298l.009-.01.008-.01c.39-.477.82-.907 1.255-1.334h0l.004-.004.143-.143c.232-.232.466-.466.69-.713M6.852 22.005l21.094 6.348m0 0c.287-.31.595-.75.67-1.292.078-.574-.119-1.166-.661-1.723 0 0 0 0 0 0l-3.712-3.815c-.265-.279-.759-.701-1.425-.701-.547 0-1.045.276-1.456.699h0l-2.305 2.368-.006.006-.005.006c-.087.095-.284.284-.572.284a.832.832 0 01-.4-.11l-.001-.002c-.008-.004-.02-.012-.037-.02a9.64 9.64 0 00-.698-.386l10.608 4.686zM16.012.73c-.077.482.236.935.697 1.014L16.505.81m-.493-.079l.493.08V.81m-.493-.079a.857.857 0 01.982-.72l-.982.72zm.493.079c-.036.228.115.412.288.442h.002c3.5.616 6.69 2.322 9.222 4.934a17.734 17.734 0 014.776 9.5h0a.36.36 0 00.35.314h.005a.372.372 0 00.346-.441v-.006h0a18.458 18.458 0 00-4.982-9.915c-2.647-2.723-5.96-4.497-9.602-5.133a.357.357 0 00-.405.305zm.224 7.352h-.002c-.13-.023-.252-.165-.223-.348a.277.277 0 01.313-.239c1.947.34 3.722 1.286 5.148 2.751a9.927 9.927 0 012.672 5.322h0l.001.006a.291.291 0 01-.219.34l-.042.005h-.008l-.003.001a.28.28 0 01-.271-.245v-.002a9.34 9.34 0 00-2.511-4.995h-.001c-1.335-1.371-3.009-2.271-4.854-2.596z" stroke="#067C94"/></svg>