<svg width="101" height="101" viewBox="0 0 101 101" fill="none" xmlns="http://www.w3.org/2000/svg">
<circle cx="50.5" cy="50.5" r="50.5" fill="#FBD60B"/>
<path d="M49.775 28.812C55.509 28.812 59.9213 30.6623 63.012 34.363C66.1433 38.0637 67.709 43.3097 67.709 50.101C67.709 54.859 66.855 58.9257 65.147 62.301C63.4797 65.6357 61.121 68.1773 58.071 69.926C55.0617 71.634 51.544 72.488 47.518 72.488C45.444 72.488 43.492 72.2847 41.662 71.878C39.832 71.4307 38.246 70.8003 36.904 69.987L39.222 65.229C41.296 66.571 44.041 67.242 47.457 67.242C51.8897 67.242 55.3463 65.8797 57.827 63.155C60.3483 60.3897 61.609 56.384 61.609 51.138V49.613C60.389 51.443 58.7013 52.846 56.546 53.822C54.3907 54.7573 51.971 55.225 49.287 55.225C46.481 55.225 43.9597 54.6963 41.723 53.639C39.527 52.5817 37.7987 51.077 36.538 49.125C35.318 47.1323 34.708 44.855 34.708 42.293C34.708 39.609 35.3587 37.2503 36.66 35.217C38.002 33.1837 39.8117 31.618 42.089 30.52C44.3663 29.3813 46.9283 28.812 49.775 28.812ZM50.324 50.284C52.2353 50.284 53.9433 49.918 55.448 49.186C56.9527 48.454 58.1117 47.4577 58.925 46.197C59.779 44.9363 60.206 43.5333 60.206 41.988C60.206 40.4833 59.7993 39.121 58.986 37.901C58.2133 36.6403 57.0543 35.644 55.509 34.912C54.0043 34.1393 52.1743 33.753 50.019 33.753C47.213 33.753 44.9357 34.5053 43.187 36.01C41.479 37.5147 40.625 39.5277 40.625 42.049C40.625 44.5703 41.4993 46.5833 43.248 48.088C44.9967 49.552 47.3553 50.284 50.324 50.284Z" fill="#067C94"/>
</svg>
