<svg width="55" height="54" viewBox="0 0 55 54" fill="none" xmlns="http://www.w3.org/2000/svg">
<path fill-rule="evenodd" clip-rule="evenodd" d="M22.8796 48.034C17.3981 47.0447 14.8953 40.9033 12.1752 36.0426C9.45849 31.1878 4.0204 26.111 5.86079 20.8611C7.66248 15.7214 18.0545 15.0215 22.8796 12.4956C27.4668 10.0942 29.4513 5.70116 34.5622 6.53112C40.0821 7.42752 44.7842 11.349 47.4238 16.2792C50.0186 21.1255 50.5056 27.1019 48.2634 32.1211C46.24 36.6504 40.8267 37.8203 36.6236 40.4552C32.0155 43.344 28.2318 49.0001 22.8796 48.034Z" fill="#067C94"/>
<path d="M36.645 20.2918C37.035 20.6866 37.035 21.3142 36.645 21.7089L25.305 33.1877C25.2135 33.2815 25.1045 33.3559 24.9843 33.4067C24.8642 33.4575 24.7352 33.4837 24.605 33.4837C24.4748 33.4837 24.3458 33.4575 24.2257 33.4067C24.1055 33.3559 23.9965 33.2815 23.905 33.1877L19.705 28.9363C19.6124 28.8436 19.5388 28.7333 19.4886 28.6117C19.4384 28.4901 19.4126 28.3595 19.4126 28.2277C19.4126 28.0959 19.4384 27.9654 19.4886 27.8438C19.5388 27.7221 19.6124 27.6118 19.705 27.5192C19.7965 27.4254 19.9055 27.3509 20.0257 27.3001C20.1458 27.2493 20.2748 27.2231 20.405 27.2231C20.5352 27.2231 20.6642 27.2493 20.7843 27.3001C20.9045 27.3509 21.0135 27.4254 21.105 27.5192L24.605 31.062L35.245 20.2918C35.3365 20.198 35.4455 20.1236 35.5657 20.0728C35.6858 20.022 35.8148 19.9958 35.945 19.9958C36.0752 19.9958 36.2042 20.022 36.3243 20.0728C36.4445 20.1236 36.5535 20.198 36.645 20.2918ZM34.535 18.1459L24.605 28.1974L21.815 25.3732C21.035 24.5837 19.765 24.5837 18.985 25.3732L17.585 26.7904C16.805 27.5799 16.805 28.8654 17.585 29.655L23.185 35.3235C23.965 36.113 25.235 36.113 26.015 35.3235L38.765 22.4276C39.545 21.6381 39.545 20.3525 38.765 19.563L37.365 18.1459C36.575 17.3563 35.315 17.3563 34.535 18.1459Z" fill="white"/>
</svg>
