<svg width="133" height="101" viewBox="0 0 133 101" fill="none" xmlns="http://www.w3.org/2000/svg">
<circle cx="61.5" cy="50.5" r="50.5" fill="#FBD60B"/>
<path d="M32.4 66.78V72H2.22V67.92L19.32 51.42C21.4 49.42 22.8 47.7 23.52 46.26C24.24 44.78 24.6 43.3 24.6 41.82C24.6 39.62 23.82 37.92 22.26 36.72C20.74 35.48 18.54 34.86 15.66 34.86C11.02 34.86 7.44 36.38 4.92 39.42L0.84 35.88C2.48 33.88 4.62 32.32 7.26 31.2C9.94 30.08 12.92 29.52 16.2 29.52C20.6 29.52 24.1 30.58 26.7 32.7C29.3 34.78 30.6 37.62 30.6 41.22C30.6 43.46 30.12 45.58 29.16 47.58C28.2 49.58 26.38 51.86 23.7 54.42L10.86 66.78H32.4ZM72.7598 61.68H64.7798V72H58.9598V61.68H35.6198V57.48L57.0998 30H63.5798L42.9998 56.52H59.1398V47.4H64.7798V56.52H72.7598V61.68ZM93.2372 21.48H98.4572L78.6572 78H73.4372L93.2372 21.48ZM130.394 30V34.08L113.414 72H107.054L123.674 35.22H104.474V42.72H98.7141V30H130.394Z" fill="#067C94"/>
</svg>
