<svg width="32" height="33" viewBox="0 0 32 33" fill="none" xmlns="http://www.w3.org/2000/svg">
<path opacity="0.84" d="M26.272 30.9752L26.2721 30.9753C26.2765 30.9707 26.2823 30.9646 26.2882 30.9585C26.6616 30.5005 27.078 30.0874 27.4995 29.674C27.7933 29.3852 28.0819 29.1014 28.3502 28.8065L28.3542 28.8021L28.3543 28.8021C28.9466 28.1667 29.2163 27.476 29.2143 26.8189C29.2123 26.1627 28.9393 25.4875 28.3487 24.8805L24.6475 21.0769L24.6406 21.0698L24.6407 21.0697C24.082 20.4722 23.4486 20.1872 22.8046 20.1872C22.1642 20.1872 21.5215 20.4682 20.9422 21.0635C20.9422 21.0635 20.9422 21.0635 20.9422 21.0635L18.7541 23.3123L18.4819 23.5921L18.1444 23.3958C17.9947 23.3088 17.8418 23.2306 17.678 23.1469C17.6446 23.1298 17.6107 23.1125 17.5763 23.0948L17.5762 23.0948C17.3293 22.9678 17.0846 22.839 16.8629 22.6993L16.8564 22.6952L16.8565 22.6951C14.7973 21.3529 12.9405 19.6052 11.1729 17.3752L11.1691 17.3704L11.1691 17.3704C10.2747 16.2129 9.67084 15.2277 9.24016 14.2019L9.10531 13.8808L9.35983 13.643C9.91939 13.1202 10.443 12.5758 10.9553 12.0359L10.9596 12.0314L10.9596 12.0315C11.0515 11.9371 11.1435 11.8409 11.2381 11.742L11.24 11.74C11.3347 11.641 11.432 11.5394 11.5311 11.4375C12.1529 10.7984 12.4316 10.1192 12.4316 9.47483C12.4316 8.83059 12.1531 8.1534 11.5319 7.51797L11.5311 7.51714L9.69347 5.62866L9.69346 5.62865C9.58477 5.51695 9.47795 5.40548 9.37344 5.29641L9.37167 5.29456C9.26733 5.18567 9.16536 5.07925 9.06361 4.97468L9.06088 4.97187L9.06089 4.97186C9.01083 4.91961 8.96081 4.86729 8.9108 4.81499C8.54775 4.43531 8.18598 4.05696 7.82463 3.71416L7.81738 3.70728L7.81041 3.70012C7.25445 3.12877 6.62569 2.85714 5.98052 2.85714C5.34229 2.85714 4.69853 3.12855 4.11432 3.70405L1.81304 6.0624C1.81296 6.06249 1.81288 6.06257 1.8128 6.06265C1.05064 6.84602 0.619067 7.79107 0.524542 8.89709C0.41505 10.327 0.668576 11.8685 1.35368 13.7721L26.272 30.9752ZM26.272 30.9752L26.2636 30.9845C25.3596 31.9919 24.2228 32.5 22.8372 32.5C22.7096 32.5 22.5866 32.4942 22.4436 32.4874M26.272 30.9752L22.4436 32.4874M22.4436 32.4874C20.2546 32.3398 18.2706 31.4963 16.7469 30.7498C12.7751 28.7743 9.29891 25.9713 6.40107 22.4216C4.01434 19.4674 2.41577 16.7198 1.35374 13.7723L22.4436 32.4874ZM6.85245 22.0047L6.85142 22.0034C4.52466 19.1259 2.95469 16.4354 1.91296 13.5442C1.26838 11.7618 1.014 10.3337 1.11845 8.9525L1.11882 8.94755L1.11885 8.94755C1.19987 8.00136 1.55922 7.1977 2.22714 6.51847L4.51831 4.16386L4.52489 4.15709L4.52496 4.15716C4.94075 3.74568 5.44345 3.48537 5.98701 3.48537C6.53078 3.48537 7.01316 3.75185 7.42218 4.16289C7.83313 4.55861 8.23016 4.973 8.63743 5.39809L8.65317 5.41452L8.6558 5.41726L8.65579 5.41727C8.86426 5.6382 9.07349 5.8597 9.28808 6.07375L9.29335 6.07901L9.29331 6.07905L11.1309 7.96753C11.5605 8.40903 11.8375 8.91102 11.8375 9.47066C11.8375 10.0303 11.5605 10.5323 11.1309 10.9738L11.1305 10.9742C10.9353 11.1748 10.7436 11.3718 10.5589 11.5683L10.555 11.5724L10.555 11.5723C10.508 11.6212 10.4611 11.6699 10.4144 11.7185C9.90021 12.2535 9.39907 12.775 8.84816 13.2797L8.842 13.2861L8.82579 13.3027C8.63299 13.5008 8.5745 13.667 8.55874 13.7962C8.5416 13.9366 8.5692 14.0818 8.6233 14.243L8.62353 14.2437C8.62385 14.2446 8.6243 14.2457 8.62492 14.2473L8.62545 14.2487C8.62779 14.2547 8.63226 14.2661 8.63739 14.2806C9.08915 15.3962 9.72958 16.4674 10.7319 17.7716C12.5534 20.0765 14.4618 21.8584 16.565 23.2321C16.8075 23.3903 17.0663 23.5269 17.3384 23.6666L6.85245 22.0047ZM6.85245 22.0047C9.68811 25.4882 13.1011 28.237 17.0117 30.1716L17.0142 30.1729C18.4332 30.865 20.3769 31.7105 22.499 31.8507L22.5002 31.8508C22.6028 31.8573 22.7281 31.865 22.8502 31.865C24.0695 31.865 25.0373 31.4496 25.8374 30.5665L25.8459 30.557L25.854 30.5472C26.244 30.07 26.6743 29.6398 27.1093 29.2127L27.1093 29.2127L27.1132 29.2088C27.1606 29.1612 27.2083 29.1136 27.256 29.0659C27.4885 28.8335 27.7224 28.5998 27.9461 28.3528M6.85245 22.0047L27.9461 28.3528M27.9461 28.3528C28.233 28.0425 28.5413 27.6026 28.6156 27.0614C28.6944 26.4869 28.4975 25.8951 27.955 25.3376C27.955 25.3376 27.955 25.3376 27.955 25.3376L24.2431 21.5228C23.9784 21.244 23.4842 20.822 22.8176 20.822C22.2706 20.822 21.7729 21.0982 21.3619 21.5206L21.3619 21.5206L19.0568 23.8894L19.0514 23.895L19.0462 23.9006C18.9591 23.9959 18.7619 24.1853 18.4736 24.1853C18.3574 24.1853 18.2343 24.1568 18.0862 24.081C18.0856 24.0807 18.0828 24.0791 18.0745 24.0742L18.0728 24.0732C18.0651 24.0687 18.0522 24.0611 18.0364 24.0524C17.819 23.9166 17.5801 23.7908 17.3384 23.6667L27.9461 28.3528ZM16.0116 0.730965C15.9349 1.21274 16.2485 1.66575 16.7085 1.74484L16.5053 0.809995M16.0116 0.730965L16.5051 0.810713C16.5052 0.810473 16.5052 0.810234 16.5053 0.809995M16.0116 0.730965C16.0882 0.256384 16.5273 -0.0671941 16.9943 0.0119028L16.0116 0.730965ZM16.5053 0.809995C16.4692 1.03812 16.6196 1.22222 16.7933 1.25207L16.7951 1.25239C20.2958 1.8679 23.485 3.57373 26.0168 6.18581C28.5486 8.79771 30.1981 12.0835 30.7931 15.6851L30.7934 15.6868C30.8245 15.8797 30.981 16 31.1431 16L31.1435 16L31.1442 16L31.1476 15.9998C31.1507 15.9996 31.1552 15.9992 31.1614 15.9985C31.174 15.9971 31.1879 15.9952 31.21 15.9919C31.3892 15.9591 31.5315 15.7707 31.4941 15.5584L31.4931 15.5526L31.4931 15.5526C30.8753 11.7847 29.1519 8.36186 26.5119 5.63819C23.8651 2.91456 20.5518 1.1406 16.9099 0.504721C16.7276 0.474397 16.5396 0.599663 16.5053 0.809995ZM16.7293 8.16162L16.7272 8.16126C16.5967 8.13881 16.4754 7.99706 16.5041 7.81378C16.5312 7.64729 16.6784 7.55206 16.8172 7.57504C18.7637 7.91531 20.5392 8.86077 21.9654 10.326C23.3793 11.7851 24.306 13.6288 24.6373 15.6483L24.6373 15.6483L24.6383 15.654C24.6679 15.8223 24.5547 15.9679 24.4191 15.9933C24.3996 15.9961 24.3879 15.9978 24.3774 15.9989C24.3736 15.9994 24.3707 15.9996 24.3688 15.9998C24.3653 16.0001 24.3646 16 24.3659 16C24.2421 16 24.1194 15.9079 24.0947 15.7549L24.0944 15.7531C23.7808 13.8601 22.913 12.1299 21.5838 10.7583L21.5829 10.7574C20.2483 9.38702 18.5742 8.48699 16.7293 8.16162Z" stroke="#067C94"/>
</svg>
